<svg width="114" height="164" viewBox="0 0 114 164" fill="none" xmlns="http://www.w3.org/2000/svg">
<path d="M41.48 46.9258H33.98V47.024L33.9826 47.122L41.48 46.9258ZM41.48 17V9.5H33.98V17H41.48ZM57.1571 105.976L50.9061 101.832L49.6571 103.716L49.6571 105.976H57.1571ZM51.8538 161.303C54.7828 164.232 59.5315 164.232 62.4604 161.303L110.19 113.574C113.119 110.645 113.119 105.896 110.19 102.967C107.261 100.038 102.512 100.038 99.5836 102.967L57.1571 145.393L14.7307 102.967C11.8018 100.038 7.05307 100.038 4.12414 102.967C1.19521 105.896 1.19521 110.645 4.12414 113.574L51.8538 161.303ZM90.6371 92.0818L89.0699 99.4162L93.1309 100.284L96.0217 97.3026L90.6371 92.0818ZM69.38 87.5395L70.9473 80.2051L65.9517 79.1376L63.129 83.3952L69.38 87.5395ZM26.8657 92.0818L23.1689 98.6074L28.0126 101.351L32.0415 97.5096L26.8657 92.0818ZM96.4829 46.9258V54.4258H103.983V46.9258H96.4829ZM81.5 46.9258V39.4258H78.1776L75.9452 41.8865L81.5 46.9258ZM69.38 60.2856L63.8252 55.2463L56.4166 63.4128L66.7337 67.3032L69.38 60.2856ZM96.4829 17H103.983V9.5H96.4829V17ZM90.6371 68.3014L96.5179 63.6467L95.2281 62.0171L93.2834 61.2838L90.6371 68.3014ZM101 81.394L106.385 86.6148L110.961 81.8946L106.881 76.7393L101 81.394ZM42.2771 77.3861L47.4529 82.8139L49.8616 80.517L49.7746 77.1899L42.2771 77.3861ZM48.98 46.9258L48.98 17L33.98 17L33.98 46.9258H48.98ZM49.6571 105.976L49.6571 156L64.6571 156L64.6571 105.976H49.6571ZM92.2044 84.7474L70.9473 80.2051L67.8128 94.8739L89.0699 99.4162L92.2044 84.7474ZM63.129 83.3952L50.9061 101.832L63.4082 110.12L75.631 91.6837L63.129 83.3952ZM4.30313 87.9196L23.1689 98.6074L30.5626 85.5562L11.6969 74.8684L4.30313 87.9196ZM96.4829 39.4258L81.5 39.4258L81.5 54.4258L96.4829 54.4258L96.4829 39.4258ZM75.9452 41.8865L63.8252 55.2463L74.9348 65.3249L87.0548 51.9651L75.9452 41.8865ZM41.48 24.5L96.4829 24.5V9.5L41.48 9.5V24.5ZM88.9829 17L88.9829 46.9258H103.983L103.983 17L88.9829 17ZM66.7337 67.3032L87.9909 75.3191L93.2834 61.2838L72.0263 53.268L66.7337 67.3032ZM84.7563 72.9561L95.1192 86.0487L106.881 76.7393L96.5179 63.6467L84.7563 72.9561ZM95.6155 76.1732L85.2526 86.861L96.0217 97.3026L106.385 86.6148L95.6155 76.1732ZM32.0415 97.5096L47.4529 82.8139L37.1014 71.9582L21.6899 86.654L32.0415 97.5096ZM49.7746 77.1899L48.9774 46.7296L33.9826 47.122L34.7797 77.5823L49.7746 77.1899Z" fill="black" fill-opacity="0.2"/>
<path d="M34.1749 24.7531L50.8068 24.3683L51.9233 72.6282C52.0051 77.1502 51.0173 81.1287 48.9599 84.5635C46.9019 87.9757 44.0086 90.6569 40.28 92.6073C36.5741 94.5572 32.2559 95.5892 27.3254 95.7032C22.9629 95.8042 18.9804 95.1347 15.378 93.6949C11.7983 92.2546 8.91481 89.9571 6.72763 86.8022C4.56316 83.6469 3.43447 79.5697 3.34155 74.5705L20.1439 74.1818C20.2536 75.9752 20.6299 77.501 21.2728 78.7591C21.9379 79.9941 22.8345 80.9168 23.9625 81.5272C25.0906 82.1377 26.4271 82.425 27.9722 82.3893C29.5854 82.3519 30.9407 81.9796 32.0383 81.2722C33.1354 80.5421 33.9521 79.4888 34.4886 78.1124C35.0478 76.7355 35.3154 75.0356 35.2913 73.0129L34.1749 24.7531Z" fill="black"/>
<path d="M105.296 56.7871L90.0027 57.5501C89.8185 56.4632 89.3644 55.5075 88.6406 54.6831C87.9163 53.836 86.9806 53.187 85.8335 52.7362C84.7086 52.2621 83.4077 52.0421 81.9308 52.0763C79.9995 52.1209 78.3611 52.5453 77.0157 53.3494C75.6931 54.1529 75.0583 55.2133 75.1115 56.5306C75.1125 57.5536 75.5419 58.4303 76.4 59.1606C77.2807 59.8904 78.8283 60.4571 81.0428 60.8605L91.1752 62.5357C96.4242 63.4145 100.348 64.9833 102.946 67.242C105.567 69.5002 106.933 72.5376 107.044 76.3542C107.105 79.9447 106.109 83.0935 104.058 85.8008C102.029 88.5075 99.2137 90.6414 95.6125 92.2024C92.0107 93.7406 87.8696 94.5639 83.189 94.6722C75.7137 94.8451 69.7821 93.4478 65.3941 90.4804C61.0283 87.4896 58.4788 83.4111 57.7455 78.2449L74.1975 77.4551C74.6052 79.3553 75.5818 80.7876 77.1272 81.7521C78.6727 82.7166 80.6269 83.1716 82.9899 83.1169C85.1257 83.0675 86.8547 82.6296 88.1768 81.8034C89.499 80.9771 90.1562 79.9048 90.1484 78.5865C90.0983 77.4055 89.5539 76.4747 88.5152 75.794C87.4759 75.0905 85.8609 74.5596 83.6702 74.201L74.4961 72.6742C69.2254 71.8413 65.2766 70.1708 62.6498 67.6627C60.0223 65.1319 58.6737 61.8668 58.6039 57.8673C58.5003 54.3688 59.3627 51.3594 61.1913 48.8392C63.0193 46.2962 65.6563 44.3256 69.1021 42.9273C72.548 41.5291 76.6339 40.7753 81.3599 40.666C88.4489 40.502 94.0728 41.8609 98.2314 44.7427C102.39 47.6019 104.744 51.6167 105.296 56.7871Z" fill="black"/>
</svg>
